<?xml version="1.0" standalone="no"?>
<!DOCTYPE svg PUBLIC "-//W3C//DTD SVG 20010904//EN"
 "http://www.w3.org/TR/2001/REC-SVG-20010904/DTD/svg10.dtd">
<svg version="1.0" xmlns="http://www.w3.org/2000/svg"
 width="1200.000000pt" height="800.000000pt" viewBox="0 0 1200.000000 800.000000"
 preserveAspectRatio="xMidYMid meet">

<g transform="translate(0.000000,800.000000) scale(0.100000,-0.100000)"
fill="#000000" stroke="none">
<path d="M0 7000 l0 -1000 6000 0 6000 0 0 1000 0 1000 -6000 0 -6000 0 0
-1000z"/>
<path d="M3970 5580 c0 -11 -7 -20 -15 -20 -8 0 -15 -9 -15 -20 0 -11 7 -20
15 -20 22 0 19 -43 -4 -64 -30 -27 -35 -65 -13 -95 21 -29 19 -51 -6 -51 -15
0 -15 -2 -2 -10 21 -14 9 -12 -40 5 -23 8 -66 15 -95 15 -44 0 -53 3 -51 17 0
10 -7 19 -16 21 -10 2 -18 -1 -18 -7 0 -6 7 -8 15 -5 8 4 15 1 15 -5 0 -6 -8
-11 -17 -11 -14 0 -15 -2 -5 -9 11 -6 9 -9 -6 -13 -24 -7 -55 10 -46 24 4 7 2
8 -4 4 -13 -8 -5 -36 11 -36 6 0 2 -6 -8 -14 -22 -16 -45 -11 -45 10 0 20 18
17 24 -3 4 -15 5 -15 3 1 -3 27 -27 32 -34 7 -3 -12 -13 -21 -24 -21 -24 0
-25 -26 -1 -39 16 -10 16 -10 -1 -11 -9 0 -16 -5 -15 -11 2 -6 -3 -14 -11 -17
-10 -3 -12 0 -8 11 4 12 -1 17 -21 19 -19 2 -26 8 -24 20 1 9 -2 19 -8 23 -6
3 -7 0 -4 -9 4 -11 0 -16 -10 -16 -9 0 -16 -4 -16 -9 0 -4 -22 -11 -49 -14
-27 -3 -67 -15 -88 -26 -28 -14 -44 -16 -56 -10 -11 6 -17 6 -17 0 0 -5 -9 -7
-20 -4 -11 3 -20 0 -20 -6 0 -6 7 -8 17 -4 13 5 15 2 10 -13 -7 -19 -7 -19 8
0 8 11 17 18 19 15 2 -2 -12 -22 -32 -44 -19 -22 -31 -34 -27 -26 5 10 4 12
-4 7 -6 -4 -9 -12 -5 -17 7 -12 -27 -40 -40 -32 -5 4 -1 12 9 20 11 7 14 13 8
13 -6 0 -16 -6 -22 -14 -15 -18 10 -41 26 -25 14 14 5 -81 -9 -98 -12 -14 -32
-7 -22 8 3 5 10 6 16 3 7 -4 8 -2 4 5 -6 9 -11 9 -22 0 -11 -9 -12 -15 -3 -25
8 -10 15 -11 24 -4 12 10 25 4 25 -12 0 -5 -4 -7 -9 -4 -5 4 -7 -3 -4 -14 3
-11 1 -20 -5 -20 -6 0 -13 8 -15 18 -4 16 -5 16 -6 -1 0 -10 5 -20 13 -23 8
-3 12 -12 9 -20 -3 -7 2 -17 11 -20 11 -4 14 -13 11 -25 -5 -15 -1 -19 15 -19
35 0 58 -18 70 -54 6 -19 20 -38 30 -41 11 -3 35 -22 54 -41 18 -18 41 -34 50
-34 9 0 16 -7 16 -15 0 -9 11 -21 25 -27 18 -8 24 -17 19 -30 -3 -11 0 -20 10
-24 10 -4 15 -17 13 -42 l-2 -37 85 -22 85 -22 -232 0 -233 -1 0 -276 0 -276
-22 6 c-13 3 -67 11 -120 18 l-98 12 0 143 c0 97 4 150 13 164 10 17 10 23 0
26 -7 3 -13 9 -13 15 0 13 26 38 39 38 7 0 11 23 11 55 l0 55 -34 0 c-30 0
-33 3 -29 24 3 13 18 37 34 52 57 54 21 117 -74 129 -47 6 -52 9 -54 32 -2 40
-21 51 -33 19 -5 -15 -8 -31 -5 -35 2 -5 -18 -11 -46 -14 -98 -12 -143 -79
-84 -126 14 -11 28 -29 30 -40 2 -12 7 -26 10 -31 4 -6 -8 -10 -29 -10 l-36 0
0 -55 c0 -30 3 -55 8 -55 4 0 16 -7 26 -15 18 -14 19 -16 2 -34 -11 -12 -14
-21 -7 -26 7 -4 11 -68 11 -181 l0 -174 -52 -24 c-60 -26 -114 -68 -123 -95
-8 -25 50 -171 77 -194 11 -9 38 -20 59 -23 l39 -7 0 -76 0 -76 -43 -18 c-24
-9 -59 -30 -77 -46 l-34 -28 11 -77 c9 -65 16 -82 41 -107 17 -17 32 -40 34
-52 3 -20 5 -19 21 10 21 39 22 69 3 106 -14 26 -14 28 15 42 l29 16 0 -190
c0 -104 -4 -192 -9 -195 -4 -3 -6 -17 -3 -31 3 -21 0 -27 -17 -32 -18 -5 -21
-13 -21 -58 0 -50 -1 -53 -30 -58 l-30 -6 0 -106 c0 -73 4 -105 12 -105 6 0
35 7 64 17 49 15 56 15 96 0 55 -21 78 -21 144 0 49 15 56 15 96 0 78 -30 78
-31 78 87 l0 104 -30 7 c-28 6 -30 9 -30 55 0 40 -4 50 -25 64 -19 13 -24 22
-19 40 3 13 1 27 -5 30 -7 5 -11 88 -11 254 l1 247 44 33 c68 49 74 65 64 146
-5 37 -13 74 -19 81 -5 6 -28 17 -50 24 -40 12 -40 12 -40 63 l0 51 68 -7 c37
-4 90 -13 117 -20 l50 -12 5 -435 c6 -464 5 -451 60 -559 52 -102 174 -183
368 -244 238 -75 513 -73 744 5 173 58 291 134 343 224 60 101 59 94 65 569
l5 440 50 12 c28 7 80 16 118 20 l67 7 0 -51 c0 -51 0 -51 -40 -63 -22 -7 -45
-18 -51 -25 -5 -7 -14 -45 -18 -84 -7 -68 -6 -75 16 -101 13 -15 39 -38 58
-49 l35 -22 0 -248 c0 -168 -4 -251 -11 -256 -6 -3 -8 -17 -5 -30 5 -18 0 -27
-19 -40 -21 -14 -25 -24 -25 -64 0 -46 -2 -49 -30 -55 l-30 -7 0 -104 c0 -118
0 -117 78 -87 40 15 47 15 96 0 66 -21 89 -21 144 0 40 15 47 15 96 0 29 -10
58 -17 64 -17 8 0 12 32 12 105 l0 106 -30 6 c-29 5 -30 8 -30 58 0 45 -3 53
-21 58 -17 5 -20 11 -17 32 3 14 1 28 -3 31 -5 3 -9 91 -9 195 l0 190 30 -16
c29 -15 30 -16 15 -45 -19 -38 -19 -64 2 -103 16 -29 18 -30 21 -10 2 12 17
35 34 52 25 25 32 42 41 107 l11 77 -34 28 c-18 16 -53 37 -77 46 l-43 18 0
76 0 76 39 7 c21 3 48 14 59 23 27 23 85 169 77 194 -9 27 -63 69 -122 95
l-53 24 0 174 c0 113 4 177 11 181 7 5 4 14 -7 26 -17 18 -16 20 2 34 10 8 22
15 27 15 4 0 7 25 7 55 l0 55 -35 0 c-34 0 -34 1 -23 28 7 15 22 38 33 52 26
30 38 60 24 60 -6 0 -7 5 -3 12 5 8 2 9 -9 5 -9 -3 -27 -2 -39 3 -21 9 -21 10
6 7 19 -1 31 3 33 13 4 13 3 13 -6 0 -6 -8 -11 -10 -11 -4 0 11 -35 12 -46 1
-4 -4 -22 -7 -41 -7 -30 0 -33 3 -34 30 -2 49 -3 53 -16 57 -12 4 -34 -36 -32
-55 4 -23 -4 -32 -27 -32 -17 0 -23 4 -19 13 4 6 -1 3 -9 -7 -15 -18 -16 -18
-16 -2 0 10 -5 14 -11 10 -6 -3 -15 0 -20 7 -7 11 -9 10 -9 -3 0 -10 8 -18 18
-19 12 0 11 -3 -6 -10 -13 -5 -28 -7 -33 -4 -4 3 -11 -6 -15 -21 -6 -22 -2
-32 18 -49 27 -23 48 -56 48 -74 0 -6 -16 -11 -35 -11 l-35 0 0 -55 c0 -32 4
-55 11 -55 13 0 39 -25 39 -38 0 -6 -6 -12 -12 -15 -10 -3 -10 -9 0 -26 8 -14
12 -67 12 -164 l0 -143 -97 -12 c-54 -7 -108 -15 -120 -18 l-23 -6 0 276 0
276 -232 1 -233 1 75 20 c90 24 101 31 94 67 -4 21 -1 30 11 35 11 4 14 12 10
27 -5 15 -2 22 14 26 12 3 21 11 21 19 0 7 16 21 36 30 19 9 42 27 51 40 8 13
22 24 31 26 8 2 25 21 36 43 15 29 30 43 54 50 24 7 32 14 29 27 -3 9 2 19 10
22 8 4 13 13 10 20 -3 8 1 17 9 20 9 3 14 14 12 24 -2 11 3 27 11 36 19 22 -1
48 -21 27 -11 -10 -9 -11 6 -5 14 5 17 3 14 -7 -3 -8 -10 -13 -16 -12 -6 1 -8
-10 -5 -27 2 -17 0 -30 -6 -30 -12 0 -12 -1 -13 99 0 38 3 74 7 80 9 15 28 14
22 -1 -2 -7 -10 -12 -16 -10 -7 1 -9 -3 -6 -9 5 -8 12 -6 23 5 22 22 1 46 -23
26 -14 -11 -18 -11 -25 -1 -9 16 -2 51 11 51 14 0 11 -28 -3 -33 -10 -4 -10
-6 0 -6 18 -1 27 28 13 42 -10 9 -15 8 -25 -5 -12 -16 -15 -15 -40 11 -20 21
-24 30 -14 35 7 3 4 4 -7 3 -11 -2 -37 5 -58 15 -21 11 -61 22 -88 25 -42 5
-49 9 -44 24 3 9 1 20 -4 24 -7 4 -8 -1 -4 -11 5 -13 3 -16 -9 -11 -10 3 -19
0 -22 -9 -4 -9 -20 -14 -48 -13 -24 0 -37 3 -30 6 17 7 15 43 -3 43 -9 0 -18
-7 -21 -15 -4 -8 -10 -12 -16 -9 -5 3 -4 12 3 20 10 12 9 13 -5 8 -11 -4 -16
-1 -16 11 0 11 5 15 16 11 9 -3 12 -2 9 5 -4 5 -12 8 -18 6 -7 -2 -18 3 -25
12 -11 15 -12 15 -6 0 6 -20 -22 -30 -51 -18 -18 7 -16 9 14 13 5 0 12 4 16 8
4 4 -7 4 -24 2 -30 -5 -44 10 -18 19 6 2 5 3 -3 3 -8 -1 -14 -9 -14 -19 2 -14
-7 -17 -51 -17 -29 0 -71 -7 -93 -14 -39 -14 -41 -14 -30 3 6 9 20 17 31 17
26 -1 34 22 11 31 -10 4 -21 0 -29 -10 -7 -10 -16 -13 -25 -7 -12 7 -12 12 -2
22 19 19 14 54 -13 86 -31 37 -33 72 -5 72 13 0 20 7 20 20 0 13 -7 20 -20 20
-13 0 -20 7 -20 20 0 15 -7 20 -25 20 -18 0 -25 -5 -25 -20z m150 -240 c0 -5
-7 -10 -15 -10 -8 0 -15 5 -15 10 0 6 7 10 15 10 8 0 15 -4 15 -10z m-50 -21
c0 -14 -27 -10 -33 5 -4 10 0 12 14 9 10 -3 19 -9 19 -14z m270 -24 c0 -9 -6
-12 -16 -8 -13 5 -13 7 -2 14 17 11 18 11 18 -6z m-715 -24 c3 -5 1 -12 -5
-16 -5 -3 -10 1 -10 9 0 18 6 21 15 7z m265 -7 l41 -17 -3 -50 -3 -51 -75 -16
c-41 -9 -101 -26 -133 -38 -76 -29 -83 -28 -97 13 -21 64 13 129 85 161 42 18
137 17 185 -2z m115 6 c3 -5 1 -10 -4 -10 -6 0 -11 5 -11 10 0 6 2 10 4 10 3
0 8 -4 11 -10z m312 -22 c27 -18 45 -39 53 -63 14 -43 5 -104 -16 -112 -8 -3
-56 8 -107 25 -51 17 -111 34 -134 37 -44 7 -53 20 -53 81 0 44 49 65 146 61
57 -2 78 -7 111 -29z m-717 12 c0 -5 -4 -10 -10 -10 -5 0 -10 5 -10 10 0 6 5
10 10 10 6 0 10 -4 10 -10z m810 0 c0 -5 -4 -10 -10 -10 -5 0 -10 5 -10 10 0
6 5 10 10 10 6 0 10 -4 10 -10z m-406 -51 c-3 -5 -10 -7 -15 -3 -5 3 -7 10 -3
15 3 5 10 7 15 3 5 -3 7 -10 3 -15z m436 1 c0 -5 -4 -10 -10 -10 -5 0 -10 5
-10 10 0 6 5 10 10 10 6 0 10 -4 10 -10z m-896 -19 c16 -6 17 -9 5 -13 -10 -4
-15 -19 -14 -44 2 -50 13 -74 31 -67 8 3 14 -1 14 -11 0 -18 -15 -22 -25 -6
-16 26 -141 4 -229 -41 -69 -35 -79 -29 -73 39 8 72 67 120 182 145 32 7 88 6
109 -2z m1070 -12 c21 -6 56 -27 78 -48 32 -30 41 -45 44 -81 7 -70 -5 -79
-63 -48 -89 48 -222 75 -238 48 -4 -6 -11 -8 -16 -4 -5 3 -7 10 -3 15 3 5 9 7
14 4 11 -7 23 23 26 68 2 27 -2 40 -14 44 -13 6 -13 8 4 15 23 9 113 3 168
-13z m-600 -14 c3 -9 -1 -18 -10 -22 -19 -7 -28 2 -21 22 8 19 23 19 31 0z
m-453 -8 c-1 -12 -15 -9 -19 4 -3 6 1 10 8 8 6 -3 11 -8 11 -12z m889 3 c0 -5
-4 -10 -10 -10 -5 0 -10 5 -10 10 0 6 5 10 10 10 6 0 10 -4 10 -10z m-890 -55
c0 -8 -4 -15 -10 -15 -5 0 -10 7 -10 15 0 8 5 15 10 15 6 0 10 -7 10 -15z
m458 -8 c4 -20 -25 -34 -40 -19 -15 15 -1 44 19 40 10 -2 19 -11 21 -21z m432
8 c0 -8 -4 -15 -10 -15 -5 0 -10 7 -10 15 0 8 5 15 10 15 6 0 10 -7 10 -15z
m-432 -64 c3 -9 0 -11 -7 -7 -7 4 -18 2 -26 -4 -12 -10 -15 -10 -15 2 0 30 39
38 48 9z m-408 -31 c0 -5 -7 -10 -15 -10 -8 0 -15 5 -15 10 0 6 7 10 15 10 8
0 15 -4 15 -10z m800 0 c0 -5 -7 -10 -15 -10 -8 0 -15 5 -15 10 0 6 7 10 15
10 8 0 15 -4 15 -10z m-1196 -105 c3 -9 0 -15 -9 -15 -9 0 -12 6 -9 15 4 8 7
15 9 15 2 0 5 -7 9 -15z m1580 0 c3 -9 0 -15 -9 -15 -9 0 -12 6 -9 15 4 8 7
15 9 15 2 0 5 -7 9 -15z m-1559 -35 c4 -6 -5 -10 -19 -10 -14 0 -26 5 -26 10
0 6 9 10 19 10 11 0 23 -4 26 -10z m1565 0 c0 -5 -4 -10 -10 -10 -5 0 -10 5
-10 10 0 6 5 10 10 10 6 0 10 -4 10 -10z m-962 -53 c2 -10 -3 -17 -12 -17 -10
0 -16 9 -16 21 0 24 23 21 28 -4z m347 3 c0 -7 -6 -15 -12 -17 -8 -3 -13 4
-13 17 0 13 5 20 13 18 6 -3 12 -11 12 -18z m-682 -64 c6 -16 -2 -28 -14 -20
-12 7 -11 34 0 34 5 0 11 -6 14 -14z m1017 0 c0 -16 -18 -31 -27 -22 -8 8 5
36 17 36 5 0 10 -6 10 -14z m-640 -136 c0 -5 -7 -10 -15 -10 -8 0 -15 5 -15
10 0 6 7 10 15 10 8 0 15 -4 15 -10z m260 0 c0 -5 -4 -10 -10 -10 -5 0 -10 5
-10 10 0 6 5 10 10 10 6 0 10 -4 10 -10z m-520 -30 c0 -5 -4 -10 -10 -10 -5 0
-10 5 -10 10 0 6 5 10 10 10 6 0 10 -4 10 -10z m778 -1 c-2 -6 -8 -10 -13 -10
-5 0 -11 4 -13 10 -2 6 4 11 13 11 9 0 15 -5 13 -11z m372 -644 l0 -465 -254
0 -253 0 -7 50 c-18 132 -127 259 -223 260 l-23 0 0 310 0 310 380 0 380 0 0
-465z m-1880 97 l0 -148 -67 -11 c-38 -6 -76 -14 -85 -18 -17 -7 -18 5 -18
159 l0 166 85 0 85 0 0 -148z m30 3 c0 -90 -4 -145 -10 -145 -6 0 -10 55 -10
145 0 90 4 145 10 145 6 0 10 -55 10 -145z m40 0 c0 -122 -2 -145 -15 -145
-13 0 -15 23 -15 145 0 122 2 145 15 145 13 0 15 -23 15 -145z m2250 -11 l0
-156 -22 5 c-13 3 -51 9 -85 13 l-63 7 0 143 0 144 85 0 85 0 0 -156z m30 -5
c0 -104 -3 -158 -10 -154 -6 4 -10 68 -10 161 0 96 4 154 10 154 6 0 10 -60
10 -161z m40 -5 c0 -128 -3 -165 -12 -162 -10 4 -14 48 -16 166 -2 140 0 162
13 162 13 0 15 -24 15 -166z m-2360 -429 c0 -83 -4 -135 -10 -135 -6 0 -10 52
-10 135 0 83 4 135 10 135 6 0 10 -52 10 -135z m38 13 c-2 -86 -7 -123 -15
-126 -10 -3 -13 26 -13 122 0 106 2 126 15 126 13 0 15 -18 13 -122z m2189
111 l63 -11 0 -155 0 -155 -82 44 -83 44 -3 122 c-3 140 -12 131 105 111z
m-2257 -134 l0 -135 -47 -24 c-27 -13 -65 -31 -86 -39 l-38 -16 3 157 3 156
55 18 c30 9 67 17 83 17 l27 1 0 -135z m2350 -40 c0 -97 -4 -155 -10 -155 -6
0 -10 58 -10 155 0 97 4 155 10 155 6 0 10 -58 10 -155z m38 -18 c2 -137 1
-156 -13 -151 -13 5 -15 31 -15 161 0 119 3 154 13 151 9 -4 13 -47 15 -161z
m-2568 143 c0 -5 -8 -10 -17 -10 -15 0 -16 2 -3 10 19 12 20 12 20 0z m2610
-6 c0 -2 -7 -4 -15 -4 -8 0 -15 4 -15 10 0 5 7 7 15 4 8 -4 15 -8 15 -10z
m-2360 -574 c0 -207 -2 -240 -15 -240 -13 0 -15 32 -15 228 0 164 3 231 12
240 7 7 13 12 15 12 2 0 3 -108 3 -240z m2250 -46 l0 -194 -85 0 -85 0 0 239
0 238 85 -44 85 -44 0 -195z m-2290 31 c0 -143 -4 -225 -10 -225 -6 0 -10 82
-10 225 0 143 4 225 10 225 6 0 10 -82 10 -225z m-30 -5 l0 -220 -85 0 -85 0
0 185 c0 141 3 185 13 185 6 1 44 16 82 35 39 18 71 34 73 34 1 1 2 -98 2
-219z m2350 -31 c0 -119 -4 -189 -10 -189 -6 0 -10 72 -10 196 0 127 3 193 10
189 6 -4 10 -80 10 -196z m40 -4 c0 -158 -2 -185 -15 -185 -13 0 -15 27 -15
185 0 158 2 185 15 185 13 0 15 -27 15 -185z m-1227 -338 c38 -65 128 -142
192 -166 30 -11 83 -24 117 -29 l63 -8 -75 -23 c-224 -69 -503 -67 -708 4 -66
23 -67 24 -27 24 51 1 129 22 180 49 77 40 195 187 195 244 0 33 15 26 26 -11
6 -22 23 -60 37 -84z m-1261 -94 c45 -16 51 -16 101 0 30 9 62 17 73 17 33 0
114 -33 114 -47 0 -16 -3 -16 -47 2 -46 19 -82 19 -144 -1 -46 -15 -53 -15
-95 1 -46 17 -91 17 -151 -3 -48 -16 -44 11 5 31 50 20 88 20 144 0z m2315 0
c51 -16 57 -16 103 0 59 21 83 21 137 1 52 -20 61 -49 11 -32 -61 20 -106 20
-152 3 -42 -16 -49 -16 -95 -1 -62 20 -98 20 -144 1 -44 -18 -47 -18 -47 -2 0
14 72 45 109 46 13 1 49 -7 78 -16z m-2316 -80 c41 -15 54 -16 91 -5 24 7 54
16 66 19 31 7 132 -27 132 -45 0 -9 -6 -12 -17 -7 -70 27 -102 29 -163 10 -58
-18 -64 -18 -108 -2 -58 21 -89 21 -135 2 -44 -18 -47 -18 -47 -2 0 14 72 45
109 46 13 1 45 -7 72 -16z m2312 0 c41 -15 53 -15 90 -4 23 7 54 15 69 18 34
6 128 -26 128 -44 0 -16 -3 -16 -47 2 -46 19 -77 19 -135 -2 -44 -16 -50 -16
-108 2 -61 19 -93 17 -162 -10 -12 -5 -18 -2 -18 7 0 15 70 45 110 47 14 1 46
-7 73 -16z"/>
<path d="M4434 4318 c7 -32 -24 -68 -61 -68 -31 0 -31 -37 0 -50 20 -8 20 -9
2 -9 -11 0 -31 8 -45 19 -23 18 -70 28 -70 15 0 -3 12 -17 28 -30 18 -16 40
-25 67 -25 22 -1 33 -4 25 -7 -8 -2 -21 -7 -29 -9 -11 -3 -11 -7 -1 -19 16
-20 12 -24 -30 -26 -24 -2 -49 6 -77 24 -39 25 -41 28 -40 73 1 30 -3 48 -11
51 -7 3 -12 1 -10 -4 1 -4 -1 -18 -6 -30 -6 -19 -11 -21 -27 -12 -12 6 -27 8
-35 5 -12 -5 -12 -10 5 -28 21 -21 21 -21 1 -35 -32 -22 -25 -40 14 -35 24 3
35 -1 39 -12 4 -9 1 -16 -6 -16 -7 -1 -2 -6 11 -13 12 -7 20 -16 16 -20 -3 -3
5 -9 19 -12 14 -4 33 -15 42 -25 14 -16 14 -18 -9 -34 -30 -19 -40 -20 -65 -4
-20 12 -51 5 -51 -12 0 -6 3 -9 8 -7 4 3 13 -1 19 -8 10 -11 9 -15 -6 -20 -30
-9 -35 -35 -7 -35 17 0 26 -7 30 -25 7 -26 32 -35 34 -12 3 36 11 52 25 55 10
2 17 -2 17 -9 0 -8 7 -5 20 6 11 10 20 14 20 10 0 -4 9 0 20 10 20 18 21 18
35 -1 8 -10 15 -22 15 -26 0 -4 14 -15 31 -25 l31 -18 -38 -5 c-51 -7 -75 -45
-55 -84 8 -14 18 -23 23 -20 4 3 8 0 8 -5 0 -6 -11 -11 -25 -11 -15 0 -25 6
-25 14 0 16 -34 31 -50 21 -6 -4 -4 -13 7 -23 16 -16 15 -18 -10 -26 -45 -16
-29 -42 23 -38 3 0 6 -11 5 -25 0 -35 21 -40 29 -8 6 25 10 26 54 23 l47 -3
-3 53 c-3 42 0 52 12 52 11 0 16 -9 16 -28 0 -41 27 -75 56 -69 15 3 24 -1 24
-8 0 -7 -16 -16 -35 -19 -21 -4 -35 -13 -35 -21 0 -8 3 -14 8 -14 22 4 28 -4
24 -31 -3 -18 0 -30 7 -30 6 0 11 5 11 10 0 16 22 12 36 -7 17 -24 28 -10 26
35 -1 20 6 54 15 75 16 38 16 38 -10 63 -15 14 -27 32 -27 40 0 26 20 54 39
54 52 0 77 83 46 157 -20 47 -20 122 0 129 8 3 17 16 21 27 3 12 14 30 22 40
13 15 14 20 3 26 -9 6 -10 11 -2 15 6 4 11 16 11 28 0 19 -1 20 -25 4 -24 -16
-26 -16 -32 0 -4 11 -12 -3 -25 -42 -19 -59 -19 -149 -2 -272 15 -103 -73 -96
-117 9 -10 25 -10 34 -1 37 7 2 12 15 12 28 0 14 4 22 10 19 6 -3 10 3 10 15
0 13 4 19 12 14 11 -7 9 10 -8 50 -4 12 -4 17 3 13 6 -4 9 10 9 36 -1 39 1 42
27 45 28 3 39 22 12 22 -8 0 -15 9 -15 20 0 11 -7 20 -15 20 -8 0 -15 7 -15
15 0 12 -4 13 -19 6 -16 -9 -18 -8 -14 9 4 15 0 20 -14 20 -10 0 -25 6 -32 13
-11 10 -12 7 -7 -15z"/>
<path d="M3972 2683 c-12 -3 -20 -8 -17 -12 2 -5 -4 -16 -15 -26 -36 -33 -25
-97 21 -121 16 -8 29 -18 29 -23 0 -5 -21 2 -47 15 -47 24 -123 33 -123 14 0
-5 19 -23 42 -40 31 -23 52 -30 86 -30 35 0 43 -3 38 -15 -3 -9 0 -15 10 -15
9 0 18 10 21 21 5 19 11 21 50 15 47 -6 98 9 121 37 12 14 10 17 -13 23 -38
10 -104 -2 -126 -22 -10 -9 -22 -15 -25 -11 -9 8 5 27 20 27 22 0 49 39 49 70
0 17 -9 40 -21 53 -12 13 -22 27 -22 33 0 10 -40 13 -78 7z m58 -19 c0 4 11
-5 25 -20 29 -31 32 -69 8 -96 -27 -30 -43 -23 -30 12 9 24 8 36 -7 67 -17 36
-18 37 -33 18 -9 -13 -13 -37 -11 -68 3 -50 -4 -57 -34 -30 -30 27 -17 103 18
103 9 0 12 5 8 12 -4 6 -3 8 4 4 6 -3 14 -2 17 4 5 8 11 7 21 -1 8 -6 14 -8
14 -5z"/>
<path d="M3765 5361 c-8 -15 3 -31 21 -31 9 0 14 7 12 17 -4 20 -24 28 -33 14z
m25 -11 c0 -5 -4 -10 -10 -10 -5 0 -10 5 -10 10 0 6 5 10 10 10 6 0 10 -4 10
-10z"/>
<path d="M3815 5360 c-9 -15 4 -30 23 -29 15 1 15 2 0 6 -10 2 -18 9 -18 15 0
5 7 8 15 4 8 -3 15 -1 15 4 0 13 -27 13 -35 0z"/>
<path d="M4147 5364 c-14 -15 -6 -34 14 -34 14 0 19 5 17 17 -3 18 -20 27 -31
17z m23 -14 c0 -5 -4 -10 -10 -10 -5 0 -10 5 -10 10 0 6 5 10 10 10 6 0 10 -4
10 -10z"/>
<path d="M4195 5360 c-8 -14 3 -30 21 -30 8 0 14 9 14 20 0 21 -24 28 -35 10z
m25 -10 c0 -5 -4 -10 -10 -10 -5 0 -10 5 -10 10 0 6 5 10 10 10 6 0 10 -4 10
-10z"/>
<path d="M3870 5351 c0 -6 7 -8 15 -5 8 4 15 1 15 -4 0 -6 -7 -13 -15 -15 -11
-4 -10 -4 2 -3 23 2 23 30 1 34 -10 2 -18 -1 -18 -7z"/>
<path d="M3686 5327 c3 -10 9 -15 12 -12 3 3 0 11 -7 18 -10 9 -11 8 -5 -6z"/>
<path d="M3928 5333 c7 -3 16 -2 19 1 4 3 -2 6 -13 5 -11 0 -14 -3 -6 -6z"/>
<path d="M3415 5270 c-8 -14 3 -30 21 -30 8 0 14 9 14 20 0 21 -24 28 -35 10z
m25 -10 c0 -5 -4 -10 -10 -10 -5 0 -10 5 -10 10 0 6 5 10 10 10 6 0 10 -4 10
-10z"/>
<path d="M3520 5260 c0 -15 5 -20 18 -18 9 2 17 10 17 18 0 8 -8 16 -17 18
-13 2 -18 -3 -18 -18z m30 0 c0 -5 -4 -10 -10 -10 -5 0 -10 5 -10 10 0 6 5 10
10 10 6 0 10 -4 10 -10z"/>
<path d="M4435 5270 c-9 -15 4 -30 23 -29 15 1 15 2 0 6 -10 2 -18 8 -18 13 0
5 8 11 18 13 15 4 15 5 0 6 -9 0 -20 -3 -23 -9z"/>
<path d="M4540 5260 c0 -15 5 -20 18 -18 9 2 17 10 17 18 0 8 -8 16 -17 18
-13 2 -18 -3 -18 -18z m30 0 c0 -5 -4 -10 -10 -10 -5 0 -10 5 -10 10 0 6 5 10
10 10 6 0 10 -4 10 -10z"/>
<path d="M3373 5264 c34 -11 16 -25 -25 -20 -24 2 -35 2 -25 0 24 -7 22 -28
-3 -21 -11 3 -18 1 -14 -4 8 -13 32 -11 41 4 4 6 17 12 28 12 11 0 20 7 20 15
0 8 -9 16 -20 17 -16 1 -16 1 -2 -3z"/>
<path d="M4613 5264 c25 -8 21 -27 -4 -21 -16 4 -19 3 -11 -5 14 -14 45 -2 40
15 -3 6 -13 13 -24 14 -16 2 -16 1 -1 -3z"/>
<path d="M4663 5244 c21 -7 22 -21 2 -27 -11 -4 -10 -4 2 -3 25 2 23 30 -2 33
-16 1 -16 1 -2 -3z"/>
<path d="M3270 5213 c8 -3 19 -11 23 -17 6 -7 7 -6 4 4 -2 8 -12 16 -23 17
-13 2 -15 1 -4 -4z"/>
<path d="M4695 5209 c-4 -6 -4 -13 -1 -16 3 -4 6 -1 6 6 0 8 8 11 20 8 11 -3
18 -1 14 4 -7 12 -31 11 -39 -2z"/>
<path d="M4748 5183 c7 -3 16 -2 19 1 4 3 -2 6 -13 5 -11 0 -14 -3 -6 -6z"/>
<path d="M3183 5135 c-3 -9 -3 -19 1 -22 3 -4 6 2 6 11 0 12 5 16 16 12 8 -3
12 -2 9 4 -9 15 -25 12 -32 -5z"/>
<path d="M3145 5030 c-3 -5 -3 -14 0 -20 8 -13 35 -13 35 0 0 5 -7 7 -15 4 -8
-4 -15 -1 -15 4 0 6 8 13 18 15 15 4 15 5 0 6 -9 0 -20 -3 -23 -9z"/>
<path d="M4812 5023 c4 -21 33 -25 33 -3 0 8 -8 16 -18 18 -14 3 -18 -1 -15
-15z m28 -3 c0 -5 -4 -10 -10 -10 -5 0 -10 5 -10 10 0 6 5 10 10 10 6 0 10 -4
10 -10z"/>
<path d="M5100 4600 c0 -6 7 -10 15 -10 8 0 15 2 15 4 0 2 -7 6 -15 10 -8 3
-15 1 -15 -4z"/>
<path d="M5202 4601 c-11 -6 -9 -9 6 -13 15 -4 19 -2 15 8 -6 16 -4 16 -21 5z"/>
<path d="M0 1000 l0 -1000 6000 0 6000 0 0 1000 0 1000 -6000 0 -6000 0 0
-1000z"/>
</g>
</svg>
